<svg xmlns="http://www.w3.org/2000/svg" width="1920" height="1080" viewBox="0 0 1920 1080" fill="none" role="img" aria-label="PickScribe hero art">
  <title>PickScribe hero art</title>
  <defs>
    <radialGradient id="glow" cx="48%" cy="52%" r="48%">
      <stop offset="0%" stop-color="#FF7A1A" stop-opacity="0.22"/>
      <stop offset="52%" stop-color="#FF7A1A" stop-opacity="0.06"/>
      <stop offset="100%" stop-color="#FF7A1A" stop-opacity="0"/>
    </radialGradient>
  </defs>
  <rect width="1920" height="1080" fill="#0A0A0B"/>
  <rect width="1920" height="1080" fill="url(#glow)"/>
  <g stroke="#F2F2F3" stroke-opacity="0.035" stroke-width="1">
    <line x1="0" y1="0" x2="0" y2="1080" /><line x1="80" y1="0" x2="80" y2="1080" /><line x1="160" y1="0" x2="160" y2="1080" /><line x1="240" y1="0" x2="240" y2="1080" /><line x1="320" y1="0" x2="320" y2="1080" /><line x1="400" y1="0" x2="400" y2="1080" /><line x1="480" y1="0" x2="480" y2="1080" /><line x1="560" y1="0" x2="560" y2="1080" /><line x1="640" y1="0" x2="640" y2="1080" /><line x1="720" y1="0" x2="720" y2="1080" /><line x1="800" y1="0" x2="800" y2="1080" /><line x1="880" y1="0" x2="880" y2="1080" /><line x1="960" y1="0" x2="960" y2="1080" /><line x1="1040" y1="0" x2="1040" y2="1080" /><line x1="1120" y1="0" x2="1120" y2="1080" /><line x1="1200" y1="0" x2="1200" y2="1080" /><line x1="1280" y1="0" x2="1280" y2="1080" /><line x1="1360" y1="0" x2="1360" y2="1080" /><line x1="1440" y1="0" x2="1440" y2="1080" /><line x1="1520" y1="0" x2="1520" y2="1080" /><line x1="1600" y1="0" x2="1600" y2="1080" /><line x1="1680" y1="0" x2="1680" y2="1080" /><line x1="1760" y1="0" x2="1760" y2="1080" /><line x1="1840" y1="0" x2="1840" y2="1080" /><line x1="1920" y1="0" x2="1920" y2="1080" /><line x1="0" y1="0" x2="1920" y2="0" /><line x1="0" y1="80" x2="1920" y2="80" /><line x1="0" y1="160" x2="1920" y2="160" /><line x1="0" y1="240" x2="1920" y2="240" /><line x1="0" y1="320" x2="1920" y2="320" /><line x1="0" y1="400" x2="1920" y2="400" /><line x1="0" y1="480" x2="1920" y2="480" /><line x1="0" y1="560" x2="1920" y2="560" /><line x1="0" y1="640" x2="1920" y2="640" /><line x1="0" y1="720" x2="1920" y2="720" /><line x1="0" y1="800" x2="1920" y2="800" /><line x1="0" y1="880" x2="1920" y2="880" /><line x1="0" y1="960" x2="1920" y2="960" /><line x1="0" y1="1040" x2="1920" y2="1040" />
  </g>
  <rect x="120" y="150" width="1680" height="780" rx="28" fill="#0F0F11" fill-opacity="0.74" stroke="#F2F2F3" stroke-opacity="0.08"/>
  <g transform="translate(170 200)">
    <circle cx="14" cy="14" r="7" fill="#F2F2F3" opacity="0.18"/>
    <circle cx="40" cy="14" r="7" fill="#F2F2F3" opacity="0.18"/>
    <circle cx="66" cy="14" r="7" fill="#F2F2F3" opacity="0.18"/>
    <text x="100" y="20" fill="#6E6E75" font-family="Geist Mono, JetBrains Mono, monospace" font-size="18" letter-spacing="0.18em">PICKSCRIBE · DICTATION</text>
    <text x="1450" y="20" text-anchor="end" fill="#FF7A1A" font-family="Geist Mono, JetBrains Mono, monospace" font-size="18">● recording</text>
  </g>
  <line x1="170" y1="260" x2="1750" y2="260" stroke="#F2F2F3" stroke-opacity="0.06"/>
  <text x="180" y="350" fill="#F2F2F3" font-family="Geist, Inter, Arial, sans-serif" font-size="84" font-weight="760" letter-spacing="-0.025em">Talk. Clean. Paste.</text>
  <text x="184" y="408" fill="#F2F2F3" fill-opacity="0.68" font-family="Geist, Inter, Arial, sans-serif" font-size="30">Local Linux dictation with AI cleanup.</text>
  <rect x="170" y="455" width="720" height="150" rx="16" fill="#000000" fill-opacity="0.30" stroke="#F2F2F3" stroke-opacity="0.06"/>
  <rect x="182" y="497.0" width="5" height="36.0" rx="2.5" fill="#FF7A1A" opacity="0.88"/>
    <rect x="194" y="486.4" width="5" height="57.2" rx="2.5" fill="#FF7A1A" opacity="0.88"/>
    <rect x="206" y="483.7" width="5" height="62.6" rx="2.5" fill="#FF7A1A" opacity="0.88"/>
    <rect x="218" y="488.3" width="5" height="53.5" rx="2.5" fill="#FF7A1A" opacity="0.88"/>
    <rect x="230" y="492.7" width="5" height="44.7" rx="2.5" fill="#FF7A1A" opacity="0.88"/>
    <rect x="242" y="492.1" width="5" height="45.8" rx="2.5" fill="#FF7A1A" opacity="0.88"/>
    <rect x="254" y="490.1" width="5" height="49.8" rx="2.5" fill="#FF7A1A" opacity="0.88"/>
    <rect x="266" y="493.7" width="5" height="42.6" rx="2.5" fill="#FF7A1A" opacity="0.88"/>
    <rect x="278" y="503.7" width="5" height="22.6" rx="2.5" fill="#FF7A1A" opacity="0.88"/>
    <rect x="290" y="506.0" width="5" height="18.0" rx="2.5" fill="#FF7A1A" opacity="0.88"/>
    <rect x="302" y="506.0" width="5" height="18.0" rx="2.5" fill="#FF7A1A" opacity="0.88"/>
    <rect x="314" y="504.5" width="5" height="21.0" rx="2.5" fill="#FF7A1A" opacity="0.88"/>
    <rect x="326" y="496.5" width="5" height="37.0" rx="2.5" fill="#FF7A1A" opacity="0.88"/>
    <rect x="338" y="494.6" width="5" height="40.8" rx="2.5" fill="#FF7A1A" opacity="0.88"/>
    <rect x="350" y="496.1" width="5" height="37.8" rx="2.5" fill="#FF7A1A" opacity="0.88"/>
    <rect x="362" y="494.1" width="5" height="41.9" rx="2.5" fill="#FF7A1A" opacity="0.88"/>
    <rect x="374" y="486.9" width="5" height="56.1" rx="2.5" fill="#FF7A1A" opacity="0.88"/>
    <rect x="386" y="481.3" width="5" height="67.3" rx="2.5" fill="#FF7A1A" opacity="0.88"/>
    <rect x="398" y="484.4" width="5" height="61.2" rx="2.5" fill="#FF7A1A" opacity="0.88"/>
    <rect x="410" y="495.1" width="5" height="39.8" rx="2.5" fill="#FF7A1A" opacity="0.88"/>
    <rect x="422" y="504.8" width="5" height="20.3" rx="2.5" fill="#FF7A1A" opacity="0.88"/>
    <rect x="434" y="506.0" width="5" height="18.0" rx="2.5" fill="#FF7A1A" opacity="0.88"/>
    <rect x="446" y="503.5" width="5" height="22.9" rx="2.5" fill="#FF7A1A" opacity="0.88"/>
    <rect x="458" y="502.1" width="5" height="25.8" rx="2.5" fill="#FF7A1A" opacity="0.88"/>
    <rect x="470" y="505.4" width="5" height="19.3" rx="2.5" fill="#FF7A1A" opacity="0.88"/>
    <rect x="482" y="506.0" width="5" height="18.0" rx="2.5" fill="#FF7A1A" opacity="0.88"/>
    <rect x="494" y="503.0" width="5" height="24.0" rx="2.5" fill="#FF7A1A" opacity="0.88"/>
    <rect x="506" y="491.7" width="5" height="46.5" rx="2.5" fill="#FF7A1A" opacity="0.88"/>
    <rect x="518" y="482.7" width="5" height="64.6" rx="2.5" fill="#FF7A1A" opacity="0.88"/>
    <rect x="530" y="482.7" width="5" height="64.5" rx="2.5" fill="#FF7A1A" opacity="0.88"/>
    <rect x="542" y="489.5" width="5" height="51.0" rx="2.5" fill="#FF7A1A" opacity="0.88"/>
    <rect x="554" y="494.8" width="5" height="40.3" rx="2.5" fill="#FF7A1A" opacity="0.88"/>
    <rect x="566" y="494.8" width="5" height="40.4" rx="2.5" fill="#FF7A1A" opacity="0.88"/>
    <rect x="578" y="493.7" width="5" height="42.6" rx="2.5" fill="#FF7A1A" opacity="0.88"/>
    <rect x="590" y="498.1" width="5" height="33.8" rx="2.5" fill="#FF7A1A" opacity="0.88"/>
    <rect x="602" y="506.0" width="5" height="18.0" rx="2.5" fill="#F2F2F3" opacity="0.24"/>
    <rect x="614" y="506.0" width="5" height="18.0" rx="2.5" fill="#F2F2F3" opacity="0.24"/>
    <rect x="626" y="506.0" width="5" height="18.0" rx="2.5" fill="#F2F2F3" opacity="0.24"/>
    <rect x="638" y="500.5" width="5" height="28.9" rx="2.5" fill="#F2F2F3" opacity="0.24"/>
    <rect x="650" y="492.4" width="5" height="45.1" rx="2.5" fill="#F2F2F3" opacity="0.24"/>
    <rect x="662" y="491.3" width="5" height="47.4" rx="2.5" fill="#F2F2F3" opacity="0.24"/>
    <rect x="674" y="493.4" width="5" height="43.3" rx="2.5" fill="#F2F2F3" opacity="0.24"/>
    <rect x="686" y="491.8" width="5" height="46.4" rx="2.5" fill="#F2F2F3" opacity="0.24"/>
    <rect x="698" y="486.0" width="5" height="58.0" rx="2.5" fill="#F2F2F3" opacity="0.24"/>
    <rect x="710" y="483.0" width="5" height="64.1" rx="2.5" fill="#F2F2F3" opacity="0.24"/>
    <rect x="722" y="488.7" width="5" height="52.6" rx="2.5" fill="#F2F2F3" opacity="0.24"/>
    <rect x="734" y="500.4" width="5" height="29.2" rx="2.5" fill="#F2F2F3" opacity="0.24"/>
    <rect x="746" y="506.0" width="5" height="18.0" rx="2.5" fill="#F2F2F3" opacity="0.24"/>
    <rect x="758" y="506.0" width="5" height="18.0" rx="2.5" fill="#F2F2F3" opacity="0.24"/>
    <rect x="770" y="503.8" width="5" height="22.5" rx="2.5" fill="#F2F2F3" opacity="0.24"/>
    <rect x="782" y="501.4" width="5" height="27.2" rx="2.5" fill="#F2F2F3" opacity="0.24"/>
    <rect x="794" y="503.6" width="5" height="22.9" rx="2.5" fill="#F2F2F3" opacity="0.24"/>
    <rect x="806" y="504.4" width="5" height="21.3" rx="2.5" fill="#F2F2F3" opacity="0.24"/>
    <rect x="818" y="498.1" width="5" height="33.9" rx="2.5" fill="#F2F2F3" opacity="0.24"/>
  <line x1="604" y1="475" x2="604" y2="585" stroke="#FF7A1A" stroke-width="2"/>
  <rect x="260" y="655" width="1320" height="88" rx="12" fill="#000000" fill-opacity="0.22" stroke="#F2F2F3" stroke-opacity="0.06"/>
  <text x="292" y="710" fill="#6E6E75" font-family="Geist Mono, JetBrains Mono, monospace" font-size="18" letter-spacing="0.18em">RAW · WHISPER</text>
  <text x="520" y="710" fill="#F2F2F3" fill-opacity="0.56" font-family="Geist Mono, JetBrains Mono, monospace" font-size="24">uhh let me just check the widget tree real quick</text>
  <line x1="520" y1="701" x2="1130" y2="701" stroke="#FB7185" stroke-opacity="0.64"/>
  <rect x="260" y="775" width="1320" height="112" rx="12" fill="#FF7A1A" fill-opacity="0.06" stroke="#FF7A1A" stroke-opacity="0.35"/>
  <text x="292" y="826" fill="#FF7A1A" font-family="Geist Mono, JetBrains Mono, monospace" font-size="18" letter-spacing="0.18em">CLEANED · LOCAL MODEL</text>
  <text x="292" y="860" fill="#F2F2F3" font-family="Geist Mono, JetBrains Mono, monospace" font-size="26">Let me just check the widget tree.</text>
  <line x1="292" y1="872" x2="806" y2="872" stroke="#FF7A1A" stroke-opacity="0.75"/>
  <g transform="translate(1345 350) scale(2.2)">

  <g stroke="#F2F2F3" stroke-width="3" stroke-linecap="square" fill="none">
    <path d="M36 52 V32 H52"/>
    <path d="M36 76 V96 H52"/>
    <path d="M76 32 H92 V52"/>
    <path d="M76 96 H92 V76"/>
  </g>
  <g stroke="#F2F2F3" stroke-width="2" stroke-linecap="round" fill="none" opacity="0.55">
    <line x1="58" y1="64" x2="58" y2="64"/>
    <line x1="62" y1="58" x2="62" y2="70"/>
    <line x1="66" y1="52" x2="66" y2="76"/>
  </g>
  <circle cx="86" cy="64" r="6" fill="#FF7A1A"/>
  </g>
</svg>
